<svg width="23" height="22" viewBox="0 0 23 22" fill="none" xmlns="http://www.w3.org/2000/svg">
  <g clip-path="url(#trash)">
    <path
      d="M20.9718 2.35529H16.2612L16.0282 0.931765C15.9247 0.388235 15.4588 0 14.9153 0H8.78118C8.23765 0 7.77177 0.388235 7.69412 0.931765L7.46118 2.35529H2.64706C2.28471 2.35529 2 2.64 2 3.00235C2 3.36471 2.28471 3.64941 2.64706 3.64941H4.04471L5.15765 20.3953C5.20941 21.3012 6.01177 22 6.94353 22H16.6753C17.6329 22 18.4094 21.3012 18.4612 20.3953L19.5741 3.64941H20.9718C21.3341 3.64941 21.6188 3.36471 21.6188 3.00235C21.6188 2.64 21.3341 2.35529 20.9718 2.35529ZM8.96235 1.29412H14.76L14.9412 2.35529H8.78118L8.96235 1.29412ZM17.1671 20.3176C17.1412 20.5247 16.9341 20.7059 16.6494 20.7059H6.94353C6.68471 20.7059 6.45177 20.5247 6.42588 20.3176L5.33882 3.67529H18.28L17.1671 20.3176Z"
      fill="white" />
    <path
      d="M11.8609 18.6353C12.1456 18.6353 12.3786 18.4023 12.3786 18.1176V6.21175C12.3786 5.92705 12.1456 5.69411 11.8609 5.69411C11.5762 5.69411 11.3433 5.92705 11.3433 6.21175V18.1176C11.3433 18.4023 11.5762 18.6353 11.8609 18.6353Z"
      fill="white" />
    <path
      d="M14.6822 18.6353C14.9928 18.6353 15.1999 18.4282 15.2257 18.1435L15.7434 6.23764C15.7434 5.95293 15.5363 5.71999 15.2516 5.69411C14.9669 5.69411 14.734 5.90117 14.7081 6.18587L14.1904 18.0918C14.1646 18.3765 14.3975 18.6353 14.6822 18.6353Z"
      fill="white" />
    <path
      d="M9.01431 18.6353C9.3249 18.6353 9.53196 18.3765 9.53196 18.0918L9.01431 6.18589C9.01431 5.90118 8.75549 5.66824 8.47078 5.69412C8.18608 5.69412 7.95314 5.95295 7.97902 6.23765L8.49667 18.1435C8.49667 18.4282 8.72961 18.6353 9.01431 18.6353Z"
      fill="white" />
  </g>
  <defs>
    <clipPath id="trash">
      <rect width="22" height="22" fill="white" transform="translate(0.333008)" />
    </clipPath>
  </defs>
</svg>
